# xmcd
# Track frame offsets:
# 150
# 11808
# 25421
# 36837
# 49405
# 60391
# 78131
# 95635
# 108082
# 119925
# 133736
# 148607
# 161890
# 171897
#
# Disc length: 2458 seconds
# Revision: 0
# Processed by: cddbd v1.5.1PL2 Copyright (c) Steve Scherf et al.
# Submitted via: VisiTrax 2.10.0.248 - For more info visit www.synapsa.com
#
DISCID=c609980e
DTITLE=Various Artist - K-Tel Presents Country Love Disc 2
DYEAR=2005
DGENRE=Country
TTITLE0=Sammi Smith - Help Me Make It Through The Night
TTITLE1=David Houston - Almost Persuaded
TTITLE2=Wynn Stewart - It's Such A Pretty World Today
TTITLE3=B.J. Thomas - I Can't Help It (I'm Still In Love With You)
TTITLE4=Narvel Felts - Everlasting Love
TTITLE5=Lynn Anderson - Close To You
TTITLE6=Al Hirt and Ace Cannon - Always On My Mind
TTITLE7=Johnny Rodriquez - Love Put A Song In My Heart
TTITLE8=Patsy Cline - Today, Tomorrow and Forever
TTITLE9=Lee Greenwood - Don't Underestimate My Love For You
TTITLE10=Jody Miller - Baby, I'm Yours
TTITLE11=Bobby Helms - My Special Angel
TTITLE12=Bob Lumen - When You Say Love
TTITLE13=Dickey Lee - Never Ending Song of Love
EXTD=
EXTT0=
EXTT1=
EXTT2=
EXTT3=
EXTT4=
EXTT5=
EXTT6=
EXTT7=
EXTT8=
EXTT9=
EXTT10=
EXTT11=
EXTT12=
EXTT13=
PLAYORDER=
